<svg version="1.1" id="Layer_1" xmlns="http://www.w3.org/2000/svg" xmlns:xlink="http://www.w3.org/1999/xlink" x="0px" y="0px"
	 width="100%" viewBox="0 0 1198 998" enable-background="new 0 0 1198 998" xml:space="preserve">
<path fill="#000935" opacity="1.000000" stroke="none" 
	d="
M709.000000,999.000000 
	C472.693451,999.000000 236.886917,999.000000 1.040188,999.000000 
	C1.040188,666.397949 1.040188,333.795837 1.040188,1.096878 
	C400.223358,1.096878 799.446777,1.096878 1198.835083,1.096878 
	C1198.835083,333.666595 1198.835083,666.333313 1198.835083,999.000000 
	C1035.795532,999.000000 872.647766,999.000000 709.000000,999.000000 
M606.236694,186.811600 
	C604.735657,179.935623 607.391357,175.488297 613.899353,172.878891 
	C616.639160,171.780350 619.135925,169.987305 621.588135,168.286453 
	C623.766785,166.775330 625.090210,166.948563 627.573059,168.486038 
	C631.673035,171.024887 636.492676,173.364182 641.191284,173.793869 
	C655.453064,175.098099 667.148010,169.147125 676.441467,158.596176 
	C690.615906,142.503723 695.345520,122.702515 697.792114,102.141068 
	C698.276489,98.069984 695.606506,95.741997 691.736389,95.943825 
	C687.966248,96.140450 684.202515,97.094284 680.508789,98.009575 
	C663.826599,102.143402 647.546692,107.312576 633.372253,117.502090 
	C623.736450,124.429001 615.891357,133.284454 617.360229,145.606369 
	C618.478210,154.984421 614.767517,159.095474 607.383179,162.219055 
	C606.171082,162.731766 605.048218,163.507751 603.975220,164.287476 
	C600.739929,166.638611 597.832947,167.204269 594.240417,164.405014 
	C590.733826,161.672653 586.620483,159.679245 582.650269,157.596222 
	C580.177124,156.298584 579.575989,154.700562 580.132874,151.989090 
	C582.525757,140.339752 578.897766,130.261505 570.115540,122.795341 
	C563.613831,117.267921 556.311401,112.082542 548.496765,108.836761 
	C536.134033,103.701881 523.120178,100.056343 510.231171,96.297279 
	C503.075928,94.210480 500.577179,96.824585 501.549652,104.146263 
	C502.009491,107.608498 502.368042,111.096695 503.068665,114.512367 
	C506.730530,132.363998 512.474426,149.269470 526.469238,161.977814 
	C537.414795,171.917114 558.515259,179.638794 574.330383,165.783081 
	C578.375061,168.198227 582.501465,170.639145 586.605225,173.117584 
	C594.479126,177.872955 594.677734,178.353836 592.076111,187.842178 
	C523.310669,187.842178 454.545197,187.842178 385.320679,187.842178 
	C385.320679,185.360672 385.329865,183.553497 385.319214,181.746445 
	C385.227020,166.083420 385.777893,150.383850 384.894562,134.765442 
	C383.320557,106.934303 353.839661,88.504837 327.849701,98.522270 
	C309.818512,105.472122 299.885010,120.275543 299.884186,140.362198 
	C299.874878,362.516510 299.877869,584.670837 299.877899,806.825134 
	C299.877899,832.490356 299.824890,858.155823 299.905182,883.820801 
	C299.943298,896.001343 308.174683,904.119446 320.337189,904.161377 
	C334.669556,904.210815 349.002228,904.182861 363.334747,904.171143 
	C377.114532,904.159973 385.107178,896.283691 385.136322,882.589294 
	C385.177490,863.257080 385.147369,843.924805 385.147736,824.592529 
	C385.147766,822.855042 385.147736,821.117615 385.147736,819.173767 
	C391.175568,819.173767 396.334747,819.179260 401.493927,819.172852 
	C442.654480,819.121826 483.815033,819.068542 525.547913,819.366089 
	C528.785156,821.686340 531.874817,824.254700 535.285461,826.283569 
	C549.305237,834.623352 563.768127,833.814636 574.717590,824.152954 
	C579.916748,827.299438 585.067627,830.667908 590.463623,833.582397 
	C593.415100,835.176514 594.275757,837.173889 594.127197,840.374451 
	C593.872620,845.860352 594.055725,851.366577 594.056152,856.864258 
	C594.056946,866.693481 594.003723,876.523071 594.084839,886.351685 
	C594.121338,890.769226 596.841553,893.830078 600.412781,893.838806 
	C604.002991,893.847595 606.610046,890.836853 606.831299,886.379395 
	C606.889099,885.216003 606.844910,884.047485 606.844910,882.881287 
	C606.844788,868.220825 606.766418,853.559387 606.940796,838.901001 
	C606.962830,837.049255 607.780029,834.439697 609.138855,833.507324 
	C614.321594,829.950745 619.876892,826.937073 625.441589,823.632385 
	C633.309021,831.211975 642.465271,832.725159 652.789917,830.481323 
	C661.071716,828.681458 667.756714,824.332153 674.965027,819.167175 
	C721.409851,819.167175 767.854614,819.167175 814.850952,819.167175 
	C814.850952,821.470642 814.850891,823.252197 814.851013,825.033813 
	C814.852783,844.697998 814.782837,864.362488 814.882935,884.026184 
	C814.943359,895.903931 823.199463,904.102234 835.010559,904.156250 
	C849.841675,904.224121 864.673462,904.192505 879.504761,904.149048 
	C881.319824,904.143677 883.186890,904.014221 884.939514,903.578674 
	C894.986877,901.081360 900.111389,893.542908 900.111694,881.389954 
	C900.116089,679.082397 900.118774,476.774811 900.115967,274.467224 
	C900.115356,228.973190 900.310730,183.477615 899.991638,137.985733 
	C899.822754,113.908966 880.789307,95.655655 857.109985,95.857956 
	C833.436829,96.060204 815.007874,114.686729 814.869995,138.660904 
	C814.786682,153.158585 814.852478,167.657135 814.851318,182.155289 
	C814.851196,183.918243 814.851318,185.681198 814.851318,187.826172 
	C812.196533,187.826172 810.227112,187.826172 808.257690,187.826172 
	C753.264709,187.826172 698.271667,187.835342 643.278687,187.819107 
	C630.948792,187.815475 618.618958,187.722916 606.236694,186.811600 
z"/>
<path fill="#B4C0F3" opacity="1.000000" stroke="none" 
	d="
M524.975586,819.015930 
	C483.815033,819.068542 442.654480,819.121826 401.493927,819.172852 
	C396.334747,819.179260 391.175568,819.173767 385.147736,819.173767 
	C385.147736,821.117615 385.147766,822.855042 385.147736,824.592529 
	C385.147369,843.924805 385.177490,863.257080 385.136322,882.589294 
	C385.107178,896.283691 377.114532,904.159973 363.334747,904.171143 
	C349.002228,904.182861 334.669556,904.210815 320.337189,904.161377 
	C308.174683,904.119446 299.943298,896.001343 299.905182,883.820801 
	C299.824890,858.155823 299.877899,832.490356 299.877899,806.825134 
	C299.877869,584.670837 299.874878,362.516510 299.884186,140.362198 
	C299.885010,120.275543 309.818512,105.472122 327.849701,98.522270 
	C353.839661,88.504837 383.320557,106.934303 384.894562,134.765442 
	C385.777893,150.383850 385.227020,166.083420 385.319214,181.746445 
	C385.329865,183.553497 385.320679,185.360672 385.320679,187.842178 
	C454.545197,187.842178 523.310669,187.842178 592.572632,188.361511 
	C593.063843,196.410507 593.058533,203.940201 592.582397,211.490677 
	C523.339600,211.511475 454.567688,211.511475 385.559021,211.511475 
	C385.559021,222.655746 385.559021,233.096191 385.559021,244.056686 
	C454.783630,244.056686 523.919861,244.056686 593.074280,244.521500 
	C593.081299,252.637192 593.070068,260.288086 592.585815,267.966248 
	C574.179382,268.030090 556.246155,268.066589 537.901733,268.117859 
	C528.606506,265.583435 519.759827,262.892639 510.826294,260.530701 
	C503.898590,258.699097 501.257233,260.849548 500.598358,267.944031 
	C461.940948,267.990784 423.756287,267.990784 385.612610,267.990784 
	C385.612610,287.513275 385.612610,306.249420 385.612610,325.210419 
	C387.211182,325.311157 388.516846,325.465027 389.822601,325.465393 
	C433.593170,325.477875 477.363770,325.480133 521.134338,325.456421 
	C522.611389,325.455627 524.088318,325.171173 525.868408,325.082397 
	C537.683899,335.536346 551.147949,341.602753 565.758789,334.535217 
	C573.955017,330.570618 579.210754,331.441925 585.402100,336.273132 
	C586.186890,336.885529 586.997925,337.573364 587.913147,337.891510 
	C593.567993,339.857117 594.864197,343.960052 593.258423,349.298706 
	C524.504333,349.231201 456.197540,349.200928 387.890717,349.193146 
	C387.127258,349.193054 386.363739,349.486237 385.611481,349.640198 
	C385.611481,360.530579 385.611481,371.110626 385.611481,381.999390 
	C387.237061,381.999390 388.550079,381.999390 389.863068,381.999390 
	C456.338409,381.999390 522.813721,382.000793 589.289062,381.990601 
	C590.784668,381.990387 592.280334,381.858795 593.815430,382.268707 
	C593.837585,390.556000 593.820312,398.363129 593.357544,406.076263 
	C592.249084,405.935455 591.586060,405.847656 590.923035,405.847595 
	C523.842163,405.840576 456.761261,405.838776 389.680389,405.850281 
	C388.388611,405.850494 387.096802,406.012665 385.692383,406.106812 
	C385.692383,425.192719 385.692383,444.034241 385.692383,463.160675 
	C387.900024,463.160675 389.718781,463.160675 391.537506,463.160675 
	C428.656708,463.160675 465.775879,463.165009 502.895081,463.148529 
	C504.885101,463.147644 506.875061,462.971588 509.043060,463.200073 
	C513.803162,471.326874 518.385193,479.130585 522.503540,486.968842 
	C476.628662,487.003357 431.217560,487.003357 385.696777,487.003357 
	C385.696777,498.168549 385.696777,508.867828 385.696777,519.792236 
	C455.349091,519.792236 524.602051,519.792236 593.893677,520.272461 
	C593.945618,528.472778 593.958984,536.192932 593.530151,543.756775 
	C523.990845,543.600525 454.893707,543.600525 385.662537,543.600525 
	C385.662537,563.079834 385.662537,581.966553 385.662537,600.987427 
	C424.664917,600.987427 463.310059,600.987427 502.019531,601.388245 
	C503.762634,609.403320 505.441345,617.017517 506.648621,624.719971 
	C465.982178,624.808167 425.787140,624.808167 385.591919,624.808167 
	C385.591919,636.100342 385.591919,646.526184 385.591919,657.259399 
	C387.331970,657.339905 388.799652,657.466797 390.267303,657.467163 
	C434.891388,657.477539 479.515442,657.480042 524.139526,657.455627 
	C525.615540,657.454834 527.091431,657.161499 528.893311,656.997192 
	C530.837708,658.134277 532.366089,659.441223 534.089294,660.397156 
	C545.340271,666.638428 557.205750,669.816711 568.809204,662.430603 
	C573.914612,659.180908 577.187927,659.520203 581.269958,662.837952 
	C582.161499,663.562500 583.176147,664.228943 584.244080,664.628235 
	C592.485046,667.709290 595.626587,673.539368 593.402222,681.941589 
	C591.811890,681.695801 590.654541,681.535889 589.497131,681.535645 
	C523.056335,681.523560 456.615509,681.523254 390.174683,681.535034 
	C388.720032,681.535339 387.265350,681.689453 385.650452,681.780823 
	C385.650452,701.009338 385.650452,719.883850 385.650452,738.995605 
	C387.154053,738.995605 388.311371,738.995605 389.468658,738.995605 
	C456.242493,738.995667 523.016357,738.996887 589.790161,738.987122 
	C591.118591,738.986938 592.447021,738.856873 593.814880,739.267700 
	C593.839172,747.552185 593.823975,755.356506 593.363037,763.066650 
	C577.324158,762.925781 561.731079,762.859619 546.138000,762.876099 
	C545.114014,762.877197 544.090759,763.509521 542.716919,763.786499 
	C531.051819,760.243286 519.779236,756.614319 508.399261,753.360535 
	C504.434998,752.227051 502.140411,754.401550 501.959564,758.544495 
	C501.894836,760.027405 501.946716,761.515320 501.485657,762.933838 
	C462.630005,762.866699 424.234009,762.866699 385.691040,762.866699 
	C385.691040,773.845703 385.691040,784.360596 385.691040,794.970947 
	C387.059479,795.047913 388.047424,795.151733 389.035370,795.151978 
	C427.971802,795.160278 466.908203,795.162598 505.844635,795.144897 
	C507.165100,795.144287 508.485474,794.929932 509.934509,795.167969 
	C515.033936,803.352356 520.004761,811.184143 524.975586,819.015930 
M361.578400,291.500183 
	C361.580200,242.009537 361.589203,192.518906 361.562653,143.028275 
	C361.561310,140.538864 361.435028,138.021515 361.056122,135.565140 
	C359.386169,124.740234 348.735229,117.745224 338.122406,120.405472 
	C328.286987,122.870850 323.735260,129.843246 323.735138,142.495255 
	C323.732788,386.449341 323.733002,630.403442 323.732635,874.357544 
	C323.732635,876.139038 323.732605,877.920593 323.732605,879.929199 
	C336.502228,879.929199 348.761414,879.929199 361.578217,879.929199 
	C361.578217,684.007019 361.578217,488.253601 361.578400,291.500183 
z"/>
<path fill="#B4C0F3" opacity="1.000000" stroke="none" 
	d="
M606.289062,187.671295 
	C618.618958,187.722916 630.948792,187.815475 643.278687,187.819107 
	C698.271667,187.835342 753.264709,187.826172 808.257690,187.826172 
	C810.227112,187.826172 812.196533,187.826172 814.851318,187.826172 
	C814.851318,185.681198 814.851196,183.918243 814.851318,182.155289 
	C814.852478,167.657135 814.786682,153.158585 814.869995,138.660904 
	C815.007874,114.686729 833.436829,96.060204 857.109985,95.857956 
	C880.789307,95.655655 899.822754,113.908966 899.991638,137.985733 
	C900.310730,183.477615 900.115356,228.973190 900.115967,274.467224 
	C900.118774,476.774811 900.116089,679.082397 900.111694,881.389954 
	C900.111389,893.542908 894.986877,901.081360 884.939514,903.578674 
	C883.186890,904.014221 881.319824,904.143677 879.504761,904.149048 
	C864.673462,904.192505 849.841675,904.224121 835.010559,904.156250 
	C823.199463,904.102234 814.943359,895.903931 814.882935,884.026184 
	C814.782837,864.362488 814.852783,844.697998 814.851013,825.033813 
	C814.850891,823.252197 814.850952,821.470642 814.850952,819.167175 
	C767.854614,819.167175 721.409851,819.167175 674.661438,818.811035 
	C679.382812,810.644165 684.407776,802.833557 689.935791,795.074097 
	C731.791260,795.125366 773.143677,795.125366 814.576538,795.125366 
	C814.576538,784.076050 814.576538,773.678406 814.576538,762.841309 
	C812.509888,762.841309 810.716309,762.841248 808.922729,762.841248 
	C782.136353,762.841248 755.350037,762.818787 728.563660,762.852539 
	C718.087280,762.865723 707.611084,763.005249 697.132446,762.707825 
	C698.624695,755.671082 695.830750,752.683777 689.156555,754.503601 
	C678.662537,757.365051 668.295898,760.693726 657.611816,763.497925 
	C640.670715,763.204956 623.993103,763.238586 607.243164,762.791992 
	C607.225586,754.436890 607.280457,746.562012 607.771606,738.779907 
	C609.038818,738.913086 609.869629,738.988892 610.700439,738.988953 
	C677.507507,738.994568 744.314575,738.995117 811.121643,738.986938 
	C812.236877,738.986816 813.352112,738.876221 814.445923,738.818359 
	C814.445923,719.578918 814.445923,700.722168 814.445923,681.724548 
	C812.730469,681.646729 811.411011,681.534668 810.091614,681.534485 
	C744.117554,681.525940 678.143494,681.521912 612.169434,681.556641 
	C610.544861,681.557495 608.920593,681.999817 607.211304,681.773376 
	C607.121521,679.486084 606.852722,677.612732 607.179199,675.849609 
	C607.574585,673.714233 607.835571,670.821045 609.270996,669.745361 
	C614.009338,666.194275 619.250854,663.314697 624.369080,660.133972 
	C632.531433,667.273865 641.851868,669.972168 651.802856,666.733826 
	C658.751892,664.472351 665.093079,660.342834 672.172974,657.203491 
	C719.878967,657.359253 767.117859,657.359253 814.544556,657.359253 
	C814.544556,646.316284 814.544556,635.759888 814.544556,624.841309 
	C812.265137,624.841309 810.291321,624.843079 808.317505,624.841064 
	C769.518311,624.802002 730.719055,624.762512 691.929077,624.339905 
	C693.640442,616.300293 695.342590,608.643921 697.504517,601.060059 
	C736.848206,601.132690 775.732056,601.132690 814.578247,601.132690 
	C814.578247,581.567627 814.578247,562.805603 814.578247,543.525452 
	C812.679504,543.525452 811.052795,543.525513 809.426025,543.525513 
	C743.624634,543.525513 677.823181,543.522095 612.021790,543.545654 
	C610.376892,543.546204 608.732056,543.844482 607.041382,543.537109 
	C607.067017,535.290649 607.138489,527.511169 607.664062,519.754883 
	C676.883118,519.778198 745.648132,519.778198 814.619873,519.778198 
	C814.619873,508.641632 814.619873,498.062744 814.619873,486.949341 
	C768.936340,486.949341 723.489502,486.949341 678.207642,486.663513 
	C682.877808,478.594482 687.382935,470.811279 692.360840,463.083923 
	C733.389221,463.139771 773.944885,463.139771 814.573853,463.139771 
	C814.573853,443.740204 814.573853,425.007874 814.573853,406.047150 
	C812.841309,405.970459 811.375366,405.849030 809.909424,405.848816 
	C743.800964,405.839447 677.692444,405.839172 611.583984,405.850281 
	C610.090637,405.850525 608.597290,405.993988 607.059692,405.599487 
	C607.012085,397.417633 607.008667,389.706879 607.473389,381.997314 
	C676.847229,381.998474 745.752869,381.998474 814.486450,381.998474 
	C814.486450,370.632263 814.486450,360.055511 814.486450,349.412994 
	C813.478394,349.307587 812.829651,349.180237 812.180908,349.180389 
	C743.517090,349.197876 674.853333,349.224945 606.141968,348.811523 
	C606.087769,345.299988 605.213806,342.047577 608.900024,340.093903 
	C612.698486,338.080688 616.466370,335.948395 619.991638,333.499603 
	C623.035278,331.385406 625.349670,331.593994 628.346375,333.780029 
	C633.560730,337.583710 639.580505,339.318787 646.128784,338.717407 
	C657.319824,337.689667 666.518250,332.499756 675.099609,325.204010 
	C721.817810,325.363007 768.064453,325.363007 814.545776,325.363007 
	C814.545776,306.076233 814.545776,287.205353 814.545776,267.916138 
	C775.469971,267.916138 736.700623,267.916138 697.922363,267.533630 
	C697.025940,262.094788 695.023499,260.199432 690.736084,261.309814 
	C681.759644,263.634613 672.879272,266.330292 663.674561,268.562317 
	C644.331116,268.233765 625.272461,268.216522 606.176025,267.719727 
	C606.164612,259.423950 606.191040,251.607773 606.667358,243.848816 
	C675.782715,243.929108 744.448059,243.953003 813.113403,243.958435 
	C813.567261,243.958466 814.021057,243.703354 814.441650,243.577362 
	C814.441650,232.912140 814.441650,222.383881 814.441650,211.750580 
	C813.053162,211.658234 812.066284,211.535294 811.079407,211.535156 
	C744.246155,211.525726 677.412903,211.522537 610.579651,211.549286 
	C609.105896,211.549881 607.632263,211.901840 606.099487,211.619141 
	C606.123291,203.322693 606.206177,195.496994 606.289062,187.671295 
M838.409668,227.499817 
	C838.409668,445.047028 838.409668,662.594238 838.409668,880.169556 
	C851.424622,880.169556 863.661682,880.169556 876.256958,880.169556 
	C876.256958,877.848206 876.256958,875.868225 876.256958,873.888184 
	C876.256958,630.594727 876.257507,387.301300 876.249634,144.007874 
	C876.249573,141.676987 876.264832,139.335022 876.059692,137.017105 
	C875.009338,125.148666 863.921692,117.466042 852.454834,120.604134 
	C843.099182,123.164467 838.440491,130.000397 838.423950,141.513763 
	C838.383301,169.842392 838.410522,198.171112 838.409668,227.499817 
z"/>
<path fill="#F7F5F0" opacity="1.000000" stroke="none" 
	d="
M663.959412,268.873657 
	C672.879272,266.330292 681.759644,263.634613 690.736084,261.309814 
	C695.023499,260.199432 697.025940,262.094788 697.652893,267.839294 
	C694.732422,289.351562 689.267212,309.045837 674.628113,325.045013 
	C666.518250,332.499756 657.319824,337.689667 646.128784,338.717407 
	C639.580505,339.318787 633.560730,337.583710 628.346375,333.780029 
	C625.349670,331.593994 623.035278,331.385406 619.991638,333.499603 
	C616.466370,335.948395 612.698486,338.080688 608.900024,340.093903 
	C605.213806,342.047577 606.087769,345.299988 606.107178,349.263367 
	C606.415100,360.768829 606.710144,371.382507 607.005249,381.996155 
	C607.008667,389.706879 607.012085,397.417633 607.043579,406.065613 
	C607.411194,425.649292 607.750793,444.295685 608.051880,463.410889 
	C608.073120,473.249420 608.132935,482.619171 608.191650,491.807098 
	C611.608948,490.239319 614.244629,489.560364 616.154907,487.995728 
	C617.859985,486.599152 619.592651,484.333435 619.865784,482.260529 
	C620.686768,476.031219 620.800781,469.708771 621.474243,463.215637 
	C627.361572,452.851562 636.095398,446.223511 646.175354,440.968781 
	C660.453735,433.525452 675.789124,429.316132 691.361206,425.804596 
	C696.854248,424.565887 699.521545,426.913544 698.466370,432.401794 
	C696.495422,442.653168 694.104370,452.823822 691.888062,463.028046 
	C687.382935,470.811279 682.877808,478.594482 677.950317,486.884613 
	C663.108337,502.840668 641.448120,509.180908 625.271729,495.328918 
	C622.609497,496.985168 620.118347,499.182526 617.212830,500.224121 
	C607.608337,503.667267 605.429016,510.610260 607.209961,519.731628 
	C607.138489,527.511169 607.067017,535.290649 607.041504,544.010132 
	C607.100830,563.602844 607.114197,582.255554 607.082397,601.378174 
	C607.064270,609.593750 607.091309,617.339417 607.098572,625.550293 
	C607.078857,636.185913 607.078857,646.356201 607.078857,657.125305 
	C610.935791,654.820618 614.088257,653.246216 616.835266,651.142395 
	C617.928223,650.305359 618.861450,648.152405 618.606262,646.844543 
	C617.104431,639.145325 618.397095,631.981689 622.110596,624.824158 
	C624.391968,622.007263 626.019409,618.804443 628.622437,617.045166 
	C636.871887,611.469666 645.485596,606.433472 654.321289,601.087280 
	C664.981079,597.792603 675.197083,594.300110 685.597168,591.488098 
	C696.619385,588.507812 697.647339,589.585144 697.044800,600.987488 
	C695.342590,608.643921 693.640442,616.300293 691.653442,624.586182 
	C687.197388,637.298279 681.145203,648.219177 671.705750,657.047729 
	C665.093079,660.342834 658.751892,664.472351 651.802856,666.733826 
	C641.851868,669.972168 632.531433,667.273865 624.369080,660.133972 
	C619.250854,663.314697 614.009338,666.194275 609.270996,669.745361 
	C607.835571,670.821045 607.574585,673.714233 607.179199,675.849609 
	C606.852722,677.612732 607.121521,679.486084 607.252014,682.230469 
	C607.363403,701.662659 607.349304,720.174866 607.335266,738.687134 
	C607.280457,746.562012 607.225586,754.436890 607.270447,763.246460 
	C607.347168,774.360107 607.324158,784.538940 607.223389,795.194458 
	C607.145752,803.979919 607.145752,812.288696 607.145752,821.289062 
	C610.929749,818.874878 613.852112,817.294373 616.408752,815.255432 
	C617.627502,814.283386 618.780701,812.479370 618.875305,810.983337 
	C619.205261,805.767273 619.060059,800.521118 619.362122,795.037842 
	C622.321411,790.450806 624.417725,785.559570 627.825134,781.883789 
	C636.018250,773.045532 646.712646,767.947998 657.875305,763.824524 
	C668.295898,760.693726 678.662537,757.365051 689.156555,754.503601 
	C695.830750,752.683777 698.624695,755.671082 697.088257,763.132446 
	C694.508545,774.298584 691.970642,784.660767 689.432739,795.022888 
	C684.407776,802.833557 679.382812,810.644165 674.199219,818.745850 
	C667.756714,824.332153 661.071716,828.681458 652.789917,830.481323 
	C642.465271,832.725159 633.309021,831.211975 625.441589,823.632385 
	C619.876892,826.937073 614.321594,829.950745 609.138855,833.507324 
	C607.780029,834.439697 606.962830,837.049255 606.940796,838.901001 
	C606.766418,853.559387 606.844788,868.220825 606.844910,882.881287 
	C606.844910,884.047485 606.889099,885.216003 606.831299,886.379395 
	C606.610046,890.836853 604.002991,893.847595 600.412781,893.838806 
	C596.841553,893.830078 594.121338,890.769226 594.084839,886.351685 
	C594.003723,876.523071 594.056946,866.693481 594.056152,856.864258 
	C594.055725,851.366577 593.872620,845.860352 594.127197,840.374451 
	C594.275757,837.173889 593.415100,835.176514 590.463623,833.582397 
	C585.067627,830.667908 579.916748,827.299438 574.717590,824.152954 
	C563.768127,833.814636 549.305237,834.623352 535.285461,826.283569 
	C531.874817,824.254700 528.785156,821.686340 525.261719,819.191040 
	C520.004761,811.184143 515.033936,803.352356 509.753845,794.870789 
	C506.944824,783.814331 504.445099,773.407654 501.945374,763.000977 
	C501.946716,761.515320 501.894836,760.027405 501.959564,758.544495 
	C502.140411,754.401550 504.434998,752.227051 508.399261,753.360535 
	C519.779236,756.614319 531.051819,760.243286 543.084839,763.845825 
	C546.068909,764.982727 548.364441,765.937744 550.595703,767.024658 
	C563.372559,773.248718 574.972351,780.721558 580.007202,795.486206 
	C580.338135,799.173523 581.644409,802.730164 580.794678,805.661926 
	C578.924072,812.115601 581.932983,815.145447 587.074890,817.457947 
	C587.822449,817.794189 588.505859,818.289917 589.182861,818.763611 
	C592.483887,821.073486 593.983459,820.158447 593.942932,816.199768 
	C593.870117,809.082214 593.852539,801.964050 593.814941,794.387207 
	C593.814880,783.672424 593.811829,773.416565 593.808838,763.160767 
	C593.823975,755.356506 593.839172,747.552185 593.826660,738.810059 
	C593.811035,719.282104 593.823059,700.692017 593.835083,682.101990 
	C595.626587,673.539368 592.485046,667.709290 584.244080,664.628235 
	C583.176147,664.228943 582.161499,663.562500 581.269958,662.837952 
	C577.187927,659.520203 573.914612,659.180908 568.809204,662.430603 
	C557.205750,669.816711 545.340271,666.638428 534.089294,660.397156 
	C532.366089,659.441223 530.837708,658.134277 528.695435,656.698608 
	C523.050049,649.801270 517.674988,643.371155 512.910767,636.516479 
	C510.425446,632.940735 509.015625,628.617432 507.120026,624.631775 
	C505.441345,617.017517 503.762634,609.403320 502.030762,600.980774 
	C500.884888,588.626648 502.184418,587.179565 513.408691,590.250671 
	C525.069580,593.441284 536.485291,597.527466 548.244934,601.465698 
	C560.325989,606.850464 570.721436,613.816589 577.853638,625.354248 
	C580.892456,632.114258 581.810974,638.710022 580.356689,645.670776 
	C580.115662,646.824219 580.600403,648.838928 581.444397,649.387695 
	C585.274048,651.878235 589.352478,653.986328 593.933044,656.565186 
	C593.933044,645.557312 593.933044,635.291504 593.967590,624.556641 
	C593.978394,616.382935 593.954590,608.678284 593.960388,600.507507 
	C593.984070,581.331909 593.978149,562.622437 593.972290,543.913025 
	C593.958984,536.192932 593.945618,528.472778 593.941589,519.822937 
	C593.967224,515.560974 594.224792,512.204529 593.893677,508.907196 
	C593.737793,507.355255 592.834717,505.334961 591.610291,504.527100 
	C586.078491,500.877319 580.310791,497.585144 574.672485,494.190857 
	C567.868164,500.383820 560.095032,502.976746 551.123413,501.810364 
	C539.890869,500.350037 530.906311,494.630615 522.967285,486.934326 
	C518.385193,479.130585 513.803162,471.326874 508.956238,462.850220 
	C506.413727,451.852570 503.806824,441.585327 501.990570,431.180084 
	C501.011810,425.572693 503.734406,423.299774 509.319763,424.926666 
	C522.492920,428.763702 535.786011,432.430603 548.524536,437.450439 
	C561.320007,442.492737 572.644958,450.094604 579.013550,463.568420 
	C579.672485,469.004974 581.350952,474.224548 580.601196,479.068237 
	C579.856384,483.880035 581.239136,485.825562 585.359619,487.398254 
	C588.074463,489.232605 590.674561,490.760681 593.807434,492.601837 
	C593.807434,490.152527 593.807434,488.669861 593.841492,486.708099 
	C593.853333,478.432892 593.831116,470.636749 593.809937,462.382019 
	C593.808411,443.339020 593.805725,424.754608 593.803040,406.170227 
	C593.820312,398.363129 593.837585,390.556000 593.827881,381.811035 
	C593.769165,370.361237 593.737366,359.849335 593.705627,349.337433 
	C594.864197,343.960052 593.567993,339.857117 587.913147,337.891510 
	C586.997925,337.573364 586.186890,336.885529 585.402100,336.273132 
	C579.210754,331.441925 573.955017,330.570618 565.758789,334.535217 
	C551.147949,341.602753 537.683899,335.536346 525.637695,324.807159 
	C515.376648,315.071289 509.819061,303.269897 506.153534,290.553284 
	C504.013733,283.129730 502.736450,275.457581 501.071106,267.897278 
	C501.257233,260.849548 503.898590,258.699097 510.826294,260.530701 
	C519.759827,262.892639 528.606506,265.583435 538.075806,268.405151 
	C550.648315,273.303558 562.307739,278.528748 571.474243,287.919373 
	C578.035889,294.641418 582.608215,302.837524 580.644409,312.145416 
	C579.030823,319.793152 582.939941,322.130310 588.107178,324.686493 
	C588.998962,325.127625 589.934814,325.479919 590.964417,326.093658 
	C591.777405,326.046814 592.476318,325.779572 593.321411,325.048462 
	C593.496094,312.637085 593.586914,300.689331 593.529175,288.742279 
	C593.495667,281.807251 593.223572,274.873352 593.058838,267.938965 
	C593.070068,260.288086 593.081299,252.637192 593.278687,244.152252 
	C593.327698,232.702072 593.190491,222.085983 593.053223,211.469879 
	C593.058533,203.940201 593.063843,196.410507 593.039978,188.407898 
	C594.677734,178.353836 594.479126,177.872955 586.605225,173.117584 
	C582.501465,170.639145 578.375061,168.198227 574.330383,165.783081 
	C558.515259,179.638794 537.414795,171.917114 526.469238,161.977814 
	C512.474426,149.269470 506.730530,132.363998 503.068665,114.512367 
	C502.368042,111.096695 502.009491,107.608498 501.549652,104.146263 
	C500.577179,96.824585 503.075928,94.210480 510.231171,96.297279 
	C523.120178,100.056343 536.134033,103.701881 548.496765,108.836761 
	C556.311401,112.082542 563.613831,117.267921 570.115540,122.795341 
	C578.897766,130.261505 582.525757,140.339752 580.132874,151.989090 
	C579.575989,154.700562 580.177124,156.298584 582.650269,157.596222 
	C586.620483,159.679245 590.733826,161.672653 594.240417,164.405014 
	C597.832947,167.204269 600.739929,166.638611 603.975220,164.287476 
	C605.048218,163.507751 606.171082,162.731766 607.383179,162.219055 
	C614.767517,159.095474 618.478210,154.984421 617.360229,145.606369 
	C615.891357,133.284454 623.736450,124.429001 633.372253,117.502090 
	C647.546692,107.312576 663.826599,102.143402 680.508789,98.009575 
	C684.202515,97.094284 687.966248,96.140450 691.736389,95.943825 
	C695.606506,95.741997 698.276489,98.069984 697.792114,102.141068 
	C695.345520,122.702515 690.615906,142.503723 676.441467,158.596176 
	C667.148010,169.147125 655.453064,175.098099 641.191284,173.793869 
	C636.492676,173.364182 631.673035,171.024887 627.573059,168.486038 
	C625.090210,166.948563 623.766785,166.775330 621.588135,168.286453 
	C619.135925,169.987305 616.639160,171.780350 613.899353,172.878891 
	C607.391357,175.488297 604.735657,179.935623 606.262878,187.241455 
	C606.206177,195.496994 606.123291,203.322693 606.112549,212.086884 
	C606.195618,223.280792 606.206543,233.536194 606.217407,243.791611 
	C606.191040,251.607773 606.164612,259.423950 606.159302,268.178040 
	C606.180420,287.842224 606.180420,306.568420 606.180420,326.582367 
	C610.857788,323.938477 614.514893,321.871307 618.349731,319.703644 
	C616.030212,304.830139 620.697510,292.424377 633.052063,284.432159 
	C642.680237,278.203644 653.608765,273.985321 663.959412,268.873657 
M517.967834,453.367523 
	C517.751160,453.337555 517.534424,453.307617 517.317749,453.277649 
	C517.422241,453.644470 517.526794,454.011292 517.644470,455.135773 
	C518.735474,457.858429 519.826538,460.581085 521.002441,463.990417 
	C525.564453,473.999115 532.220459,482.083252 542.556213,487.707611 
	C547.907715,490.120911 553.397278,490.836761 559.035767,488.875946 
	C559.265259,488.796112 559.078369,487.519165 558.682678,486.272705 
	C548.313232,478.521301 537.943726,470.769928 527.289795,462.357483 
	C524.223877,459.539307 521.157898,456.721130 517.967834,453.367523 
M653.135864,624.948914 
	C658.833557,619.785095 664.531250,614.621277 670.228943,609.457397 
	C669.779541,608.895203 669.330200,608.332947 668.880798,607.770691 
	C657.711304,612.391418 645.875916,615.687256 636.268311,624.951599 
	C630.575684,630.548035 628.911987,634.720886 630.147705,641.840332 
	C637.851807,636.029663 645.172363,630.508179 653.135864,624.948914 
M527.790161,607.616150 
	C527.515442,607.563232 527.240784,607.510254 526.966064,607.457275 
	C527.304138,607.644775 527.642212,607.832275 528.053101,608.702576 
	C533.944214,614.129272 539.835266,619.555969 546.014709,625.619202 
	C553.124023,630.837646 560.233276,636.056030 567.810120,641.617676 
	C568.380249,633.177246 566.483215,628.738098 560.781616,624.090271 
	C551.308105,615.771423 540.285889,610.603333 527.790161,607.616150 
M649.715027,463.045074 
	C656.937622,456.712097 664.160156,450.379150 671.382751,444.046173 
	C671.066650,443.614624 670.750488,443.183075 670.434326,442.751526 
	C665.370117,444.723877 659.965515,446.109283 655.319702,448.803223 
	C647.956787,453.072693 641.101501,458.217468 633.430725,463.343170 
	C631.803589,467.263062 630.176514,471.182922 628.549377,475.102783 
	C629.232788,475.641388 629.916260,476.179962 630.599670,476.718567 
	C636.755005,472.250977 642.910339,467.783417 649.715027,463.045074 
M549.260559,463.889801 
	C555.135986,468.024841 561.011353,472.159882 567.576050,476.780029 
	C568.356018,470.611786 567.015137,466.543365 563.752380,462.340790 
	C553.715942,451.808258 540.692810,447.026703 527.389221,442.785187 
	C527.057617,443.236542 526.726013,443.687866 526.394409,444.139221 
	C533.904663,450.535583 541.414917,456.931976 549.260559,463.889801 
M645.660889,794.977173 
	C654.227417,787.696289 662.793945,780.415405 671.360413,773.134521 
	C670.995667,772.661560 670.630859,772.188538 670.266052,771.715576 
	C658.094360,775.873718 646.045227,780.321594 636.272217,789.212708 
	C634.495789,790.828735 633.292664,793.074951 631.252380,795.489807 
	C630.707581,798.323547 630.162842,801.157288 629.618042,803.990967 
	C630.047913,804.300415 630.477722,804.609802 630.907593,804.919250 
	C635.607239,801.689697 640.306946,798.460144 645.660889,794.977173 
M566.026062,794.327576 
	C559.783691,784.650146 536.405518,771.485474 526.185425,772.735901 
	C535.558533,780.588867 544.282227,787.897827 553.401489,795.723755 
	C558.236938,798.882874 563.072327,802.041992 567.907776,805.201111 
	C568.435059,804.755798 568.962280,804.310486 569.489563,803.865173 
	C568.367981,800.918030 567.246399,797.970886 566.026062,794.327576 
M669.943848,463.124512 
	C659.598938,471.018188 649.254028,478.911865 638.179565,487.013428 
	C638.377686,487.770905 638.418030,489.095612 638.797546,489.201172 
	C645.039856,490.937988 651.148621,491.074738 657.414001,486.876129 
	C666.005859,480.669098 672.839600,473.011261 677.447083,462.556122 
	C678.405762,459.786743 679.364441,457.017334 680.323181,454.247955 
	C679.957703,454.069611 679.592224,453.891296 679.226807,453.712982 
	C676.338928,456.814667 673.451050,459.916321 669.943848,463.124512 
M675.685608,794.923889 
	C677.351685,790.906555 679.017822,786.889282 680.683899,782.871948 
	C680.434998,782.781372 680.186157,782.690735 679.937256,782.600159 
	C675.596191,786.735413 671.255188,790.870667 666.288818,795.233032 
	C656.656189,802.408142 647.023621,809.583252 636.786133,817.208984 
	C643.963257,820.241638 650.587830,819.906006 656.546143,816.115601 
	C664.590088,810.998413 671.159912,804.268738 675.685608,794.923889 
M530.934326,794.376587 
	C526.890442,790.216675 522.846497,786.056763 518.802612,781.896912 
	C518.300720,782.256653 517.798828,782.616394 517.296997,782.976135 
	C519.172424,787.084656 521.047852,791.193115 523.022583,795.975525 
	C527.083374,801.182800 530.622742,806.928223 535.319885,811.478577 
	C543.565613,819.466553 552.515076,820.969177 560.798950,816.748169 
	C550.855713,809.450684 541.021667,802.233337 530.934326,794.376587 
M526.694580,279.124634 
	C526.730225,278.910034 526.765869,278.695404 526.801514,278.480835 
	C526.594299,278.779572 526.387085,279.078339 526.900024,279.449738 
	C538.892578,292.306396 552.606140,302.961670 567.939453,312.392761 
	C568.653198,305.270355 566.357788,300.151672 561.792908,296.015747 
	C552.227844,287.349548 540.697571,282.456299 528.474731,278.970428 
	C527.794922,278.776550 526.934082,279.217133 526.694580,279.124634 
M655.585022,323.320526 
	C668.729675,315.536621 676.351501,303.839996 680.111206,290.083344 
	C665.948120,301.256165 651.551880,312.612885 637.132874,323.987610 
	C642.953918,326.102448 648.937683,325.980591 655.585022,323.320526 
M559.415710,158.066620 
	C544.382446,148.284592 529.740723,138.004669 517.511597,124.618675 
	C520.000061,136.616394 525.748718,146.585876 534.876587,154.299042 
	C541.727783,160.088394 549.640808,163.209869 558.829041,160.390976 
	C559.365295,160.226471 559.618774,159.140076 559.415710,158.066620 
M546.308350,313.213226 
	C536.552307,305.192749 526.796265,297.172272 517.189880,289.274780 
	C520.136536,300.992126 526.234863,311.235504 535.869202,319.206726 
	C543.757446,325.733215 552.854004,327.110199 560.961487,323.194458 
	C556.152161,319.939667 551.512756,316.799927 546.308350,313.213226 
M658.463684,143.993576 
	C651.201660,149.107513 643.939575,154.221466 636.245239,159.639847 
	C645.184875,163.262680 652.775757,162.028931 659.720093,156.552261 
	C670.034973,148.417511 677.023315,138.125153 680.398804,124.686127 
	C672.900452,131.317719 665.971863,137.445419 658.463684,143.993576 
M561.015198,652.053162 
	C549.760437,643.527283 538.564636,634.921204 527.190613,626.557434 
	C525.378845,625.225220 522.766602,624.981506 519.353577,623.844482 
	C523.809753,635.150635 529.870361,643.165100 537.990540,649.518433 
	C545.020203,655.018616 552.795532,656.842957 561.015198,652.053162 
M542.077637,119.380539 
	C536.951477,117.508270 531.825317,115.636002 526.699158,113.763725 
	C538.254578,128.044586 552.267944,138.801849 567.976990,148.124191 
	C568.692505,140.381454 566.093750,134.488419 560.545227,130.485138 
	C554.946411,126.445435 548.703735,123.298073 542.077637,119.380539 
M672.339478,625.101685 
	C660.683655,634.426270 649.027893,643.750854 637.521423,652.955994 
	C643.832031,655.619995 648.210571,655.861572 654.369141,652.871399 
	C666.191345,647.131470 672.971985,636.954468 678.575134,624.833618 
	C676.291626,624.833618 674.697266,624.833618 672.339478,625.101685 
M637.048340,143.557587 
	C649.059814,135.460052 660.599609,126.824318 670.286865,115.040977 
	C659.586243,116.373726 640.575500,126.440956 634.280212,133.478210 
	C630.600769,137.591309 629.446899,142.355942 629.354065,148.306595 
	C632.003235,146.680878 634.223938,145.318115 637.048340,143.557587 
M665.531677,280.057709 
	C655.386841,283.814331 645.329590,287.741333 636.993774,294.959229 
	C631.213806,299.964020 629.047546,305.115295 629.932373,311.689117 
	C644.552673,303.980011 667.527527,285.120209 669.699158,278.756317 
	C668.403564,279.182159 667.347900,279.529144 665.531677,280.057709 
M671.486511,607.444702 
	C671.486511,607.444702 671.527649,607.520813 671.486511,607.444702 
z"/>
<path fill="#020B37" opacity="1.000000" stroke="none" 
	d="
M361.578308,292.000183 
	C361.578217,488.253601 361.578217,684.007019 361.578217,879.929199 
	C348.761414,879.929199 336.502228,879.929199 323.732605,879.929199 
	C323.732605,877.920593 323.732635,876.139038 323.732635,874.357544 
	C323.733002,630.403442 323.732788,386.449341 323.735138,142.495255 
	C323.735260,129.843246 328.286987,122.870850 338.122406,120.405472 
	C348.735229,117.745224 359.386169,124.740234 361.056122,135.565140 
	C361.435028,138.021515 361.561310,140.538864 361.562653,143.028275 
	C361.589203,192.518906 361.580200,242.009537 361.578308,292.000183 
z"/>
<path fill="#010A36" opacity="1.000000" stroke="none" 
	d="
M593.402222,681.941589 
	C593.823059,700.692017 593.811035,719.282104 593.787231,738.329834 
	C592.447021,738.856873 591.118591,738.986938 589.790161,738.987122 
	C523.016357,738.996887 456.242493,738.995667 389.468658,738.995605 
	C388.311371,738.995605 387.154053,738.995605 385.650452,738.995605 
	C385.650452,719.883850 385.650452,701.009338 385.650452,681.780823 
	C387.265350,681.689453 388.720032,681.535339 390.174683,681.535034 
	C456.615509,681.523254 523.056335,681.523560 589.497131,681.535645 
	C590.654541,681.535889 591.811890,681.695801 593.402222,681.941589 
z"/>
<path fill="#000935" opacity="1.000000" stroke="none" 
	d="
M548.008240,601.222046 
	C536.485291,597.527466 525.069580,593.441284 513.408691,590.250671 
	C502.184418,587.179565 500.884888,588.626648 501.966370,600.579956 
	C463.310059,600.987427 424.664917,600.987427 385.662537,600.987427 
	C385.662537,581.966553 385.662537,563.079834 385.662537,543.600525 
	C454.893707,543.600525 523.990845,543.600525 593.530151,543.756775 
	C593.978149,562.622437 593.984070,581.331909 593.503113,600.583130 
	C578.013611,601.157288 563.010925,601.189697 548.008240,601.222046 
z"/>
<path fill="#010A36" opacity="1.000000" stroke="none" 
	d="
M578.969116,463.186768 
	C572.644958,450.094604 561.320007,442.492737 548.524536,437.450439 
	C535.786011,432.430603 522.492920,428.763702 509.319763,424.926666 
	C503.734406,423.299774 501.011810,425.572693 501.990570,431.180084 
	C503.806824,441.585327 506.413727,451.852570 508.778198,462.527161 
	C506.875061,462.971588 504.885101,463.147644 502.895081,463.148529 
	C465.775879,463.165009 428.656708,463.160675 391.537506,463.160675 
	C389.718781,463.160675 387.900024,463.160675 385.692383,463.160675 
	C385.692383,444.034241 385.692383,425.192719 385.692383,406.106812 
	C387.096802,406.012665 388.388611,405.850494 389.680389,405.850281 
	C456.761261,405.838776 523.842163,405.840576 590.923035,405.847595 
	C591.586060,405.847656 592.249084,405.935455 593.357544,406.076263 
	C593.805725,424.754608 593.808411,443.339020 593.366821,462.473999 
	C588.271423,463.078674 583.620239,463.132721 578.969116,463.186768 
z"/>
<path fill="#010A36" opacity="1.000000" stroke="none" 
	d="
M500.598358,267.944031 
	C502.736450,275.457581 504.013733,283.129730 506.153534,290.553284 
	C509.819061,303.269897 515.376648,315.071289 525.334595,324.743713 
	C524.088318,325.171173 522.611389,325.455627 521.134338,325.456421 
	C477.363770,325.480133 433.593170,325.477875 389.822601,325.465393 
	C388.516846,325.465027 387.211182,325.311157 385.612610,325.210419 
	C385.612610,306.249420 385.612610,287.513275 385.612610,267.990784 
	C423.756287,267.990784 461.940948,267.990784 500.598358,267.944031 
z"/>
<path fill="#020B37" opacity="1.000000" stroke="none" 
	d="
M593.258423,349.298706 
	C593.737366,359.849335 593.769165,370.361237 593.788452,381.330811 
	C592.280334,381.858795 590.784668,381.990387 589.289062,381.990601 
	C522.813721,382.000793 456.338409,381.999390 389.863068,381.999390 
	C388.550079,381.999390 387.237061,381.999390 385.611481,381.999390 
	C385.611481,371.110626 385.611481,360.530579 385.611481,349.640198 
	C386.363739,349.486237 387.127258,349.193054 387.890717,349.193146 
	C456.197540,349.200928 524.504333,349.231201 593.258423,349.298706 
z"/>
<path fill="#000935" opacity="1.000000" stroke="none" 
	d="
M592.582397,211.490677 
	C593.190491,222.085983 593.327698,232.702072 593.260498,243.687439 
	C523.919861,244.056686 454.783630,244.056686 385.559021,244.056686 
	C385.559021,233.096191 385.559021,222.655746 385.559021,211.511475 
	C454.567688,211.511475 523.339600,211.511475 592.582397,211.490677 
z"/>
<path fill="#020B37" opacity="1.000000" stroke="none" 
	d="
M522.503540,486.968842 
	C530.906311,494.630615 539.890869,500.350037 551.123413,501.810364 
	C560.095032,502.976746 567.868164,500.383820 574.672485,494.190857 
	C580.310791,497.585144 586.078491,500.877319 591.610291,504.527100 
	C592.834717,505.334961 593.737793,507.355255 593.893677,508.907196 
	C594.224792,512.204529 593.967224,515.560974 593.902954,519.342712 
	C524.602051,519.792236 455.349091,519.792236 385.696777,519.792236 
	C385.696777,508.867828 385.696777,498.168549 385.696777,487.003357 
	C431.217560,487.003357 476.628662,487.003357 522.503540,486.968842 
z"/>
<path fill="#010A36" opacity="1.000000" stroke="none" 
	d="
M506.648621,624.719971 
	C509.015625,628.617432 510.425446,632.940735 512.910767,636.516479 
	C517.674988,643.371155 523.050049,649.801270 528.369507,656.706055 
	C527.091431,657.161499 525.615540,657.454834 524.139526,657.455627 
	C479.515442,657.480042 434.891388,657.477539 390.267303,657.467163 
	C388.799652,657.466797 387.331970,657.339905 385.591919,657.259399 
	C385.591919,646.526184 385.591919,636.100342 385.591919,624.808167 
	C425.787140,624.808167 465.982178,624.808167 506.648621,624.719971 
z"/>
<path fill="#010A36" opacity="1.000000" stroke="none" 
	d="
M501.485657,762.933838 
	C504.445099,773.407654 506.944824,783.814331 509.625244,794.518188 
	C508.485474,794.929932 507.165100,795.144287 505.844635,795.144897 
	C466.908203,795.162598 427.971802,795.160278 389.035370,795.151978 
	C388.047424,795.151733 387.059479,795.047913 385.691040,794.970947 
	C385.691040,784.360596 385.691040,773.845703 385.691040,762.866699 
	C424.234009,762.866699 462.630005,762.866699 501.485657,762.933838 
z"/>
<path fill="#020B37" opacity="1.000000" stroke="none" 
	d="
M590.850281,325.873230 
	C589.934814,325.479919 588.998962,325.127625 588.107178,324.686493 
	C582.939941,322.130310 579.030823,319.793152 580.644409,312.145416 
	C582.608215,302.837524 578.035889,294.641418 571.474243,287.919373 
	C562.307739,278.528748 550.648315,273.303558 538.486938,268.390411 
	C556.246155,268.066589 574.179382,268.030090 592.585754,267.966248 
	C593.223572,274.873352 593.495667,281.807251 593.529175,288.742279 
	C593.586914,300.689331 593.496094,312.637085 592.923523,325.046570 
	C591.869751,325.630127 591.359985,325.751678 590.850281,325.873230 
z"/>
<path fill="#040D38" opacity="1.000000" stroke="none" 
	d="
M580.004517,795.072021 
	C574.972351,780.721558 563.372559,773.248718 550.595703,767.024658 
	C548.364441,765.937744 546.068909,764.982727 543.435120,763.907471 
	C544.090759,763.509521 545.114014,762.877197 546.138000,762.876099 
	C561.731079,762.859619 577.324158,762.925781 593.363037,763.066650 
	C593.811829,773.416565 593.814880,783.672424 593.373291,794.480042 
	C588.620544,795.045227 584.312561,795.058594 580.004517,795.072021 
z"/>
<path fill="#020B37" opacity="1.000000" stroke="none" 
	d="
M838.410095,226.999817 
	C838.410522,198.171112 838.383301,169.842392 838.423950,141.513763 
	C838.440491,130.000397 843.099182,123.164467 852.454834,120.604134 
	C863.921692,117.466042 875.009338,125.148666 876.059692,137.017105 
	C876.264832,139.335022 876.249573,141.676987 876.249634,144.007874 
	C876.257507,387.301300 876.256958,630.594727 876.256958,873.888184 
	C876.256958,875.868225 876.256958,877.848206 876.256958,880.169556 
	C863.661682,880.169556 851.424622,880.169556 838.409668,880.169556 
	C838.409668,662.594238 838.409668,445.047028 838.410095,226.999817 
z"/>
<path fill="#000935" opacity="1.000000" stroke="none" 
	d="
M607.771606,738.779907 
	C607.349304,720.174866 607.363403,701.662659 607.336792,682.693298 
	C608.920593,681.999817 610.544861,681.557495 612.169434,681.556641 
	C678.143494,681.521912 744.117554,681.525940 810.091614,681.534485 
	C811.411011,681.534668 812.730469,681.646729 814.445923,681.724548 
	C814.445923,700.722168 814.445923,719.578918 814.445923,738.818359 
	C813.352112,738.876221 812.236877,738.986816 811.121643,738.986938 
	C744.314575,738.995117 677.507507,738.994568 610.700439,738.988953 
	C609.869629,738.988892 609.038818,738.913086 607.771606,738.779907 
z"/>
<path fill="#010A35" opacity="1.000000" stroke="none" 
	d="
M607.127502,600.908325 
	C607.114197,582.255554 607.100830,563.602844 607.087341,544.477051 
	C608.732056,543.844482 610.376892,543.546204 612.021790,543.545654 
	C677.823181,543.522095 743.624634,543.525513 809.426025,543.525513 
	C811.052795,543.525513 812.679504,543.525452 814.578247,543.525452 
	C814.578247,562.805603 814.578247,581.567627 814.578247,601.132690 
	C775.732056,601.132690 736.848206,601.132690 697.504578,601.060059 
	C697.647339,589.585144 696.619385,588.507812 685.597168,591.488098 
	C675.197083,594.300110 664.981079,597.792603 653.861328,601.034546 
	C637.734863,601.024963 622.431213,600.966675 607.127502,600.908325 
z"/>
<path fill="#010A36" opacity="1.000000" stroke="none" 
	d="
M608.090393,462.942078 
	C607.750793,444.295685 607.411194,425.649292 607.087769,406.536774 
	C608.597290,405.993988 610.090637,405.850525 611.583984,405.850281 
	C677.692444,405.839172 743.800964,405.839447 809.909424,405.848816 
	C811.375366,405.849030 812.841309,405.970459 814.573853,406.047150 
	C814.573853,425.007874 814.573853,443.740204 814.573853,463.139771 
	C773.944885,463.139771 733.389221,463.139771 692.360840,463.083923 
	C694.104370,452.823822 696.495422,442.653168 698.466370,432.401794 
	C699.521545,426.913544 696.854248,424.565887 691.361206,425.804596 
	C675.789124,429.316132 660.453735,433.525452 646.175354,440.968781 
	C636.095398,446.223511 627.361572,452.851562 621.005737,463.105408 
	C616.199158,463.115448 612.144775,463.028748 608.090393,462.942078 
z"/>
<path fill="#010A36" opacity="1.000000" stroke="none" 
	d="
M675.099609,325.204010 
	C689.267212,309.045837 694.732422,289.351562 697.661804,268.221771 
	C736.700623,267.916138 775.469971,267.916138 814.545776,267.916138 
	C814.545776,287.205353 814.545776,306.076233 814.545776,325.363007 
	C768.064453,325.363007 721.817810,325.363007 675.099609,325.204010 
z"/>
<path fill="#020B37" opacity="1.000000" stroke="none" 
	d="
M607.473450,381.997314 
	C606.710144,371.382507 606.415100,360.768829 606.154785,349.703308 
	C674.853333,349.224945 743.517090,349.197876 812.180908,349.180389 
	C812.829651,349.180237 813.478394,349.307587 814.486450,349.412994 
	C814.486450,360.055511 814.486450,370.632263 814.486450,381.998474 
	C745.752869,381.998474 676.847229,381.998474 607.473450,381.997314 
z"/>
<path fill="#010A35" opacity="1.000000" stroke="none" 
	d="
M606.667419,243.848816 
	C606.206543,233.536194 606.195618,223.280792 606.171631,212.557648 
	C607.632263,211.901840 609.105896,211.549881 610.579651,211.549286 
	C677.412903,211.522537 744.246155,211.525726 811.079407,211.535156 
	C812.066284,211.535294 813.053162,211.658234 814.441650,211.750580 
	C814.441650,222.383881 814.441650,232.912140 814.441650,243.577362 
	C814.021057,243.703354 813.567261,243.958466 813.113403,243.958435 
	C744.448059,243.953003 675.782715,243.929108 606.667419,243.848816 
z"/>
<path fill="#020B37" opacity="1.000000" stroke="none" 
	d="
M607.664062,519.754883 
	C605.429016,510.610260 607.608337,503.667267 617.212830,500.224121 
	C620.118347,499.182526 622.609497,496.985168 625.271729,495.328918 
	C641.448120,509.180908 663.108337,502.840668 677.785278,487.170410 
	C723.489502,486.949341 768.936340,486.949341 814.619873,486.949341 
	C814.619873,498.062744 814.619873,508.641632 814.619873,519.778198 
	C745.648132,519.778198 676.883118,519.778198 607.664062,519.754883 
z"/>
<path fill="#010A36" opacity="1.000000" stroke="none" 
	d="
M672.172974,657.203491 
	C681.145203,648.219177 687.197388,637.298279 691.644287,624.969360 
	C730.719055,624.762512 769.518311,624.802002 808.317505,624.841064 
	C810.291321,624.843079 812.265137,624.841309 814.544556,624.841309 
	C814.544556,635.759888 814.544556,646.316284 814.544556,657.359253 
	C767.117859,657.359253 719.878967,657.359253 672.172974,657.203491 
z"/>
<path fill="#010A36" opacity="1.000000" stroke="none" 
	d="
M689.935791,795.074097 
	C691.970642,784.660767 694.508545,774.298584 697.090576,763.511841 
	C707.611084,763.005249 718.087280,762.865723 728.563660,762.852539 
	C755.350037,762.818787 782.136353,762.841248 808.922729,762.841248 
	C810.716309,762.841248 812.509888,762.841309 814.576538,762.841309 
	C814.576538,773.678406 814.576538,784.076050 814.576538,795.125366 
	C773.143677,795.125366 731.791260,795.125366 689.935791,795.074097 
z"/>
<path fill="#050E39" opacity="1.000000" stroke="none" 
	d="
M663.674561,268.562317 
	C653.608765,273.985321 642.680237,278.203644 633.052063,284.432159 
	C620.697510,292.424377 616.030212,304.830139 618.349731,319.703644 
	C614.514893,321.871307 610.857788,323.938477 606.180420,326.582367 
	C606.180420,306.568420 606.180420,287.842224 606.197144,268.657654 
	C625.272461,268.216522 644.331116,268.233765 663.674561,268.562317 
z"/>
<path fill="#020B37" opacity="1.000000" stroke="none" 
	d="
M607.301147,794.717834 
	C607.324158,784.538940 607.347168,774.360107 607.342896,763.726685 
	C623.993103,763.238586 640.670715,763.204956 657.611816,763.497925 
	C646.712646,767.947998 636.018250,773.045532 627.825134,781.883789 
	C624.417725,785.559570 622.321411,790.450806 618.898926,794.988892 
	C614.546387,795.031677 610.923767,794.874756 607.301147,794.717834 
z"/>
<path fill="#B2BEF1" opacity="1.000000" stroke="none" 
	d="
M548.244934,601.465698 
	C563.010925,601.189697 578.013611,601.157288 593.473572,601.049316 
	C593.954590,608.678284 593.978394,616.382935 593.511475,624.479492 
	C587.943237,624.906189 582.865662,624.940979 577.788086,624.975830 
	C570.721436,613.816589 560.325989,606.850464 548.244934,601.465698 
z"/>
<path fill="#B3BEF1" opacity="1.000000" stroke="none" 
	d="
M607.082397,601.378174 
	C622.431213,600.966675 637.734863,601.024963 653.498535,601.135986 
	C645.485596,606.433472 636.871887,611.469666 628.622437,617.045166 
	C626.019409,618.804443 624.391968,622.007263 621.658936,624.737061 
	C616.372620,624.978088 611.745483,625.031555 607.118286,625.085083 
	C607.091309,617.339417 607.064270,609.593750 607.082397,601.378174 
z"/>
<path fill="#060F3A" opacity="1.000000" stroke="none" 
	d="
M655.252441,323.514771 
	C648.937683,325.980591 642.953918,326.102448 637.132874,323.987610 
	C651.551880,312.612885 665.948120,301.256165 680.111206,290.083344 
	C676.351501,303.839996 668.729675,315.536621 655.252441,323.514771 
z"/>
<path fill="#09113C" opacity="1.000000" stroke="none" 
	d="
M559.709717,158.274658 
	C559.618774,159.140076 559.365295,160.226471 558.829041,160.390976 
	C549.640808,163.209869 541.727783,160.088394 534.876587,154.299042 
	C525.748718,146.585876 520.000061,136.616394 517.511597,124.618675 
	C529.740723,138.004669 544.382446,148.284592 559.709717,158.274658 
z"/>
<path fill="#09113C" opacity="1.000000" stroke="none" 
	d="
M546.590881,313.436707 
	C551.512756,316.799927 556.152161,319.939667 560.961487,323.194458 
	C552.854004,327.110199 543.757446,325.733215 535.869202,319.206726 
	C526.234863,311.235504 520.136536,300.992126 517.189880,289.274780 
	C526.796265,297.172272 536.552307,305.192749 546.590881,313.436707 
z"/>
<path fill="#060F3A" opacity="1.000000" stroke="none" 
	d="
M658.753479,143.783356 
	C665.971863,137.445419 672.900452,131.317719 680.398804,124.686127 
	C677.023315,138.125153 670.034973,148.417511 659.720093,156.552261 
	C652.775757,162.028931 645.184875,163.262680 636.245239,159.639847 
	C643.939575,154.221466 651.201660,149.107513 658.753479,143.783356 
z"/>
<path fill="#08103B" opacity="1.000000" stroke="none" 
	d="
M561.136658,652.363953 
	C552.795532,656.842957 545.020203,655.018616 537.990540,649.518433 
	C529.870361,643.165100 523.809753,635.150635 519.353577,623.844482 
	C522.766602,624.981506 525.378845,625.225220 527.190613,626.557434 
	C538.564636,634.921204 549.760437,643.527283 561.136658,652.363953 
z"/>
<path fill="#08103B" opacity="1.000000" stroke="none" 
	d="
M542.410400,119.570145 
	C548.703735,123.298073 554.946411,126.445435 560.545227,130.485138 
	C566.093750,134.488419 568.692505,140.381454 567.976990,148.124191 
	C552.267944,138.801849 538.254578,128.044586 526.699158,113.763725 
	C531.825317,115.636002 536.951477,117.508270 542.410400,119.570145 
z"/>
<path fill="#08103B" opacity="1.000000" stroke="none" 
	d="
M672.721191,624.967651 
	C674.697266,624.833618 676.291626,624.833618 678.575134,624.833618 
	C672.971985,636.954468 666.191345,647.131470 654.369141,652.871399 
	C648.210571,655.861572 643.832031,655.619995 637.521423,652.955994 
	C649.027893,643.750854 660.683655,634.426270 672.721191,624.967651 
z"/>
<path fill="#08103B" opacity="1.000000" stroke="none" 
	d="
M636.746460,143.756470 
	C634.223938,145.318115 632.003235,146.680878 629.354065,148.306595 
	C629.446899,142.355942 630.600769,137.591309 634.280212,133.478210 
	C640.575500,126.440956 659.586243,116.373726 670.286865,115.040977 
	C660.599609,126.824318 649.059814,135.460052 636.746460,143.756470 
z"/>
<path fill="#09123C" opacity="1.000000" stroke="none" 
	d="
M665.911987,279.966919 
	C667.347900,279.529144 668.403564,279.182159 669.699158,278.756317 
	C667.527527,285.120209 644.552673,303.980011 629.932373,311.689117 
	C629.047546,305.115295 631.213806,299.964020 636.993774,294.959229 
	C645.329590,287.741333 655.386841,283.814331 665.911987,279.966919 
z"/>
<path fill="#08103B" opacity="1.000000" stroke="none" 
	d="
M526.157532,279.362396 
	C526.934082,279.217133 527.794922,278.776550 528.474731,278.970428 
	C540.697571,282.456299 552.227844,287.349548 561.792908,296.015747 
	C566.357788,300.151672 568.653198,305.270355 567.939453,312.392761 
	C552.606140,302.961670 538.892578,292.306396 526.573547,279.386139 
	C526.247070,279.322540 526.157532,279.362396 526.157532,279.362396 
z"/>
<path fill="#020B37" opacity="1.000000" stroke="none" 
	d="
M577.853638,625.354248 
	C582.865662,624.940979 587.943237,624.906189 593.476929,624.948547 
	C593.933044,635.291504 593.933044,645.557312 593.933044,656.565186 
	C589.352478,653.986328 585.274048,651.878235 581.444397,649.387695 
	C580.600403,648.838928 580.115662,646.824219 580.356689,645.670776 
	C581.810974,638.710022 580.892456,632.114258 577.853638,625.354248 
z"/>
<path fill="#B7C2F4" opacity="1.000000" stroke="none" 
	d="
M531.187622,795.016052 
	C541.021667,802.233337 550.855713,809.450684 560.798950,816.748169 
	C552.515076,820.969177 543.565613,819.466553 535.319885,811.478577 
	C530.622742,806.928223 527.083374,801.182800 523.430603,795.603271 
	C526.288269,795.159363 528.737976,795.087708 531.187622,795.016052 
z"/>
<path fill="#B7C2F4" opacity="1.000000" stroke="none" 
	d="
M675.095398,795.338257 
	C671.159912,804.268738 664.590088,810.998413 656.546143,816.115601 
	C650.587830,819.906006 643.963257,820.241638 636.786133,817.208984 
	C647.023621,809.583252 656.656189,802.408142 667.051636,795.184814 
	C670.241455,795.203796 672.668396,795.271057 675.095398,795.338257 
z"/>
<path fill="#B7C2F4" opacity="1.000000" stroke="none" 
	d="
M542.228943,487.086304 
	C532.220459,482.083252 525.564453,473.999115 521.433228,463.601013 
	C523.767456,463.147278 525.670898,463.082916 527.574280,463.018555 
	C537.943726,470.769928 548.313232,478.521301 558.414185,486.607422 
	C552.840088,486.990173 547.534485,487.038269 542.228943,487.086304 
z"/>
<path fill="#060F3A" opacity="1.000000" stroke="none" 
	d="
M607.098572,625.550293 
	C611.745483,625.031555 616.372620,624.978088 621.451538,625.011719 
	C618.397095,631.981689 617.104431,639.145325 618.606262,646.844543 
	C618.861450,648.152405 617.928223,650.305359 616.835266,651.142395 
	C614.088257,653.246216 610.935791,654.820618 607.078857,657.125305 
	C607.078857,646.356201 607.078857,636.185913 607.098572,625.550293 
z"/>
<path fill="#B7C2F4" opacity="1.000000" stroke="none" 
	d="
M676.997009,463.144897 
	C672.839600,473.011261 666.005859,480.669098 656.626343,486.964294 
	C650.195496,486.970184 644.552307,486.887878 638.909119,486.805542 
	C649.254028,478.911865 659.598938,471.018188 670.710693,463.143494 
	C673.317383,463.156616 675.157227,463.150757 676.997009,463.144897 
z"/>
<path fill="#09113C" opacity="1.000000" stroke="none" 
	d="
M553.005981,795.206726 
	C544.282227,787.897827 535.558533,780.588867 526.185425,772.735901 
	C536.405518,771.485474 559.783691,784.650146 565.607422,794.738770 
	C561.127869,795.168884 557.066956,795.187805 553.005981,795.206726 
z"/>
<path fill="#B6C1F3" opacity="1.000000" stroke="none" 
	d="
M579.013550,463.568420 
	C583.620239,463.132721 588.271423,463.078674 593.365723,462.932617 
	C593.831116,470.636749 593.853333,478.432892 593.418518,486.647064 
	C590.389282,487.074066 587.817017,487.083008 585.244812,487.091949 
	C581.239136,485.825562 579.856384,483.880035 580.601196,479.068237 
	C581.350952,474.224548 579.672485,469.004974 579.013550,463.568420 
z"/>
<path fill="#B5C1F1" opacity="1.000000" stroke="none" 
	d="
M608.051880,463.410889 
	C612.144775,463.028748 616.199158,463.115448 620.722046,463.312378 
	C620.800781,469.708771 620.686768,476.031219 619.865784,482.260529 
	C619.592651,484.333435 617.859985,486.599152 616.154907,487.995728 
	C614.244629,489.560364 611.608948,490.239319 608.191650,491.807098 
	C608.132935,482.619171 608.073120,473.249420 608.051880,463.410889 
z"/>
<path fill="#07103A" opacity="1.000000" stroke="none" 
	d="
M631.824890,795.030212 
	C633.292664,793.074951 634.495789,790.828735 636.272217,789.212708 
	C646.045227,780.321594 658.094360,775.873718 670.266052,771.715576 
	C670.630859,772.188538 670.995667,772.661560 671.360413,773.134521 
	C662.793945,780.415405 654.227417,787.696289 644.871704,795.058228 
	C639.996582,795.102966 635.910767,795.066589 631.824890,795.030212 
z"/>
<path fill="#B6C1F3" opacity="1.000000" stroke="none" 
	d="
M580.007202,795.486206 
	C584.312561,795.058594 588.620544,795.045227 593.370239,794.938965 
	C593.852539,801.964050 593.870117,809.082214 593.942932,816.199768 
	C593.983459,820.158447 592.483887,821.073486 589.182861,818.763611 
	C588.505859,818.289917 587.822449,817.794189 587.074890,817.457947 
	C581.932983,815.145447 578.924072,812.115601 580.794678,805.661926 
	C581.644409,802.730164 580.338135,799.173523 580.007202,795.486206 
z"/>
<path fill="#060F3A" opacity="1.000000" stroke="none" 
	d="
M548.925110,463.328369 
	C541.414917,456.931976 533.904663,450.535583 526.394409,444.139221 
	C526.726013,443.687866 527.057617,443.236542 527.389221,442.785187 
	C540.692810,447.026703 553.715942,451.808258 563.379456,462.719238 
	C558.312744,463.174591 553.618896,463.251465 548.925110,463.328369 
z"/>
<path fill="#B7C2F4" opacity="1.000000" stroke="none" 
	d="
M607.223450,795.194458 
	C610.923767,794.874756 614.546387,795.031677 618.632202,795.237549 
	C619.060059,800.521118 619.205261,805.767273 618.875305,810.983337 
	C618.780701,812.479370 617.627502,814.283386 616.408752,815.255432 
	C613.852112,817.294373 610.929749,818.874878 607.145752,821.289062 
	C607.145752,812.288696 607.145752,803.979919 607.223450,795.194458 
z"/>
<path fill="#07103A" opacity="1.000000" stroke="none" 
	d="
M634.031494,462.991882 
	C641.101501,458.217468 647.956787,453.072693 655.319702,448.803223 
	C659.965515,446.109283 665.370117,444.723877 670.434326,442.751526 
	C670.750488,443.183075 671.066650,443.614624 671.382751,444.046173 
	C664.160156,450.379150 656.937622,456.712097 648.922241,463.120972 
	C643.430115,463.128540 638.730774,463.060242 634.031494,462.991882 
z"/>
<path fill="#B5C1F1" opacity="1.000000" stroke="none" 
	d="
M545.726318,624.982788 
	C539.835266,619.555969 533.944214,614.129272 528.025513,608.352356 
	C527.997925,608.002136 528.011475,607.982910 528.011475,607.982910 
	C540.285889,610.603333 551.308105,615.771423 560.473389,624.441162 
	C555.352173,624.855591 550.539246,624.919189 545.726318,624.982788 
z"/>
<path fill="#B5C1F1" opacity="1.000000" stroke="none" 
	d="
M636.885559,624.643311 
	C645.875916,615.687256 657.711304,612.391418 668.880798,607.770691 
	C669.330200,608.332947 669.779541,608.895203 670.228943,609.457397 
	C664.531250,614.621277 658.833557,619.785095 652.318970,624.896973 
	C646.629883,624.777771 641.757751,624.710510 636.885559,624.643311 
z"/>
<path fill="#07103A" opacity="1.000000" stroke="none" 
	d="
M636.576904,624.797424 
	C641.757751,624.710510 646.629883,624.777771 651.997559,624.915894 
	C645.172363,630.508179 637.851807,636.029663 630.147705,641.840332 
	C628.911987,634.720886 630.575684,630.548035 636.576904,624.797424 
z"/>
<path fill="#08103B" opacity="1.000000" stroke="none" 
	d="
M545.870483,625.301025 
	C550.539246,624.919189 555.352173,624.855591 560.637451,624.722778 
	C566.483215,628.738098 568.380249,633.177246 567.810120,641.617676 
	C560.233276,636.056030 553.124023,630.837646 545.870483,625.301025 
z"/>
<path fill="#B3BEF1" opacity="1.000000" stroke="none" 
	d="
M633.731079,463.167542 
	C638.730774,463.060242 643.430115,463.128540 648.597534,463.256348 
	C642.910339,467.783417 636.755005,472.250977 630.599670,476.718567 
	C629.916260,476.179962 629.232788,475.641388 628.549377,475.102783 
	C630.176514,471.182922 631.803589,467.263062 633.731079,463.167542 
z"/>
<path fill="#B2BEF1" opacity="1.000000" stroke="none" 
	d="
M549.092834,463.609070 
	C553.618896,463.251465 558.312744,463.174591 563.465332,463.042603 
	C567.015137,466.543365 568.356018,470.611786 567.576050,476.780029 
	C561.011353,472.159882 555.135986,468.024841 549.092834,463.609070 
z"/>
<path fill="#B2BEED" opacity="1.000000" stroke="none" 
	d="
M553.203735,795.465210 
	C557.066956,795.187805 561.127869,795.168884 565.656860,795.086853 
	C567.246399,797.970886 568.367981,800.918030 569.489563,803.865173 
	C568.962280,804.310486 568.435059,804.755798 567.907776,805.201111 
	C563.072327,802.041992 558.236938,798.882874 553.203735,795.465210 
z"/>
<path fill="#B2BEED" opacity="1.000000" stroke="none" 
	d="
M631.538635,795.260010 
	C635.910767,795.066589 639.996582,795.102966 644.544556,795.184998 
	C640.306946,798.460144 635.607239,801.689697 630.907593,804.919250 
	C630.477722,804.609802 630.047913,804.300415 629.618042,803.990967 
	C630.162842,801.157288 630.707581,798.323547 631.538635,795.260010 
z"/>
<path fill="#111942" opacity="1.000000" stroke="none" 
	d="
M675.390503,795.131104 
	C672.668396,795.271057 670.241455,795.203796 667.364319,795.071289 
	C671.255188,790.870667 675.596191,786.735413 679.937256,782.600159 
	C680.186157,782.690735 680.434998,782.781372 680.683899,782.871948 
	C679.017822,786.889282 677.351685,790.906555 675.390503,795.131104 
z"/>
<path fill="#111942" opacity="1.000000" stroke="none" 
	d="
M531.060974,794.696289 
	C528.737976,795.087708 526.288269,795.159363 523.380981,795.266357 
	C521.047852,791.193115 519.172424,787.084656 517.296997,782.976135 
	C517.798828,782.616394 518.300720,782.256653 518.802612,781.896912 
	C522.846497,786.056763 526.890442,790.216675 531.060974,794.696289 
z"/>
<path fill="#09123C" opacity="1.000000" stroke="none" 
	d="
M638.544312,486.909485 
	C644.552307,486.887878 650.195496,486.970184 656.290405,487.074341 
	C651.148621,491.074738 645.039856,490.937988 638.797546,489.201172 
	C638.418030,489.095612 638.377686,487.770905 638.544312,486.909485 
z"/>
<path fill="#111942" opacity="1.000000" stroke="none" 
	d="
M542.392578,487.396973 
	C547.534485,487.038269 552.840088,486.990173 558.615540,486.871033 
	C559.078369,487.519165 559.265259,488.796112 559.035767,488.875946 
	C553.397278,490.836761 547.907715,490.120911 542.392578,487.396973 
z"/>
<path fill="#09123C" opacity="1.000000" stroke="none" 
	d="
M527.432007,462.688019 
	C525.670898,463.082916 523.767456,463.147278 521.390808,463.257690 
	C519.826538,460.581085 518.735474,457.858429 517.753418,454.638519 
	C517.862305,454.141266 518.091919,453.902985 518.091919,453.902985 
	C521.157898,456.721130 524.223877,459.539307 527.432007,462.688019 
z"/>
<path fill="#09123C" opacity="1.000000" stroke="none" 
	d="
M677.222046,462.850525 
	C675.157227,463.150757 673.317383,463.156616 671.020386,463.090210 
	C673.451050,459.916321 676.338928,456.814667 679.226807,453.712982 
	C679.592224,453.891296 679.957703,454.069611 680.323181,454.247955 
	C679.364441,457.017334 678.405762,459.786743 677.222046,462.850525 
z"/>
<path fill="#111942" opacity="1.000000" stroke="none" 
	d="
M585.359619,487.398254 
	C587.817017,487.083008 590.389282,487.074066 593.384460,487.126160 
	C593.807434,488.669861 593.807434,490.152527 593.807434,492.601837 
	C590.674561,490.760681 588.074463,489.232605 585.359619,487.398254 
z"/>
<path fill="#B4C0F3" opacity="1.000000" stroke="none" 
	d="
M590.964417,326.093658 
	C591.359985,325.751678 591.869751,325.630127 592.777344,325.510468 
	C592.476318,325.779572 591.777405,326.046814 590.964417,326.093658 
z"/>
<path fill="#B5C1F1" opacity="1.000000" stroke="none" 
	d="
M527.989136,608.010986 
	C527.642212,607.832275 527.304138,607.644775 526.966064,607.457275 
	C527.240784,607.510254 527.515442,607.563232 527.900818,607.799561 
	C528.011475,607.982910 527.997925,608.002136 527.989136,608.010986 
z"/>
<path fill="#09123C" opacity="1.000000" stroke="none" 
	d="
M517.746826,454.259705 
	C517.526794,454.011292 517.422241,453.644470 517.317749,453.277649 
	C517.534424,453.307617 517.751160,453.337555 518.029907,453.635254 
	C518.091919,453.902985 517.862305,454.141266 517.746826,454.259705 
z"/>
<path fill="#B5C1F1" opacity="1.000000" stroke="none" 
	d="
M671.507080,607.482788 
	C671.527649,607.520813 671.486511,607.444702 671.507080,607.482788 
z"/>
<path fill="#08103B" opacity="1.000000" stroke="none" 
	d="
M526.213501,279.349823 
	C526.387085,279.078339 526.594299,278.779572 526.801514,278.480835 
	C526.765869,278.695404 526.730225,278.910034 526.426025,279.243530 
	C526.157532,279.362396 526.247070,279.322540 526.213501,279.349823 
z"/>
</svg>